PathFileType	4	(X/Y/Z)	C:/Users/beibeiliu/ov580/test_trc/capture2\sequence.20_training_dense_left.trc
DataRate	CameraRate	NumFrames	NumMarkers	Units	OrigDataRate	OrigDataStartFrame	OrigNumFrames
120	120	21	19	mm	120	253	337
Frame#	Time	ThumbCMC			ThumbMCP			ThumbIP			ThumbTip			IndexMCP			IndexPIP			IndexTip			MiddleMCP			MiddlePIP			MiddleTip			RingMCP			RingPIP			RingTip			PinkyMCP			PinkyPIP			PinkyTip			BackHand1			BackHand2			BackHand3	
		X0	Y0	Z0	X1	Y1	Z1	X2	Y2	Z2	X3	Y3	Z3	X4	Y4	Z4	X5	Y5	Z5	X6	Y6	Z6	X7	Y7	Z7	X8	Y8	Z8	X9	Y9	Z9	X10	Y10	Z10	X11	Y11	Z11	X12	Y12	Z12	X13	Y13	Z13	X14	Y14	Z14	X15	Y15	Z15	X16	Y16	Z16	X17	Y17	Z17	X18	Y18	Z18	
252	2.1	-110.091	12.5231	18.972	-91.799	14.4674	-10.0187	-90.9588	24.9164	-33.4543	-104.25	39.2091	-52.6418	-93.0337	62.4588	-34.1402	-93.2037	78.7171	-58.359	-91.1903	95.0383	-76.3424	-109.745	79.4488	-43.2204	-105.286	88.2278	-62.6039	-99.4121	107.471	-86.414	-127.542	81.2883	-40.8057	-124.959	90.5314	-58.8753	-121.964	107.254	-78.71	-149.757	81.1099	-34.0959	-140.23	88.9641	-53.4798	-133.133	105.386	-66.4568	-137.355	64.7178	7.88524	-143.822	54.9994	34.7066	-114.123	47.7317	22.2749	
253	2.10833	-106.968	10.3796	19.1177	-95.5668	13.1756	-9.45203	-91.6024	24.8257	-36.4661	-104.516	38.7244	-56.1282	-97.8508	65.8446	-38.465	-92.9509	74.6779	-58.0895	-90.9067	90.4298	-77.7929	-110.642	78.2765	-46.1729	-107.077	86.7039	-63.8778	-104.347	103.47	-87.4745	-130.318	82.9934	-44.886	-129.175	92.7748	-62.4636	-122.745	108.296	-84.2902	-150.286	80.2773	-34.8198	-143.415	89.1792	-54.9932	-139.164	106.034	-65.5155	-137.966	68.7863	4.52401	-144.655	58.5397	31.3889	-112.698	46.3195	18.569	
254	2.11667	-108.447	16.2858	14.324	-94.3461	13.0224	-12.9233	-94.6834	23.1954	-37.3485	-110.311	39.1799	-57.4833	-96.6696	61.6913	-40.8811	-94.3524	73.0602	-63.5671	-95.1447	88.9208	-86.2398	-115.302	76.2132	-45.0056	-111.093	85.6895	-67.9332	-106.424	103.561	-93.7307	-132.401	80.7664	-44.5484	-128.231	90.9895	-67.6789	-126.254	105.446	-88.188	-153.597	79.8582	-36.4709	-145.835	85.849	-55.1899	-139.084	103.251	-70.9975	-136.86	68.3195	3.15145	-143.691	57.1609	30.0055	-113.754	47.0179	18.9371	
255	2.125	-110.792	17.2415	13.1604	-98.3704	12.2861	-12.2369	-98.0052	21.3146	-39.7097	-116.458	36.7178	-57.3283	-100.313	60.194	-43.815	-101.158	71.6363	-69.4234	-103.042	83.541	-88.3607	-113.917	73.0084	-51.9547	-117.543	82.128	-71.6863	-114.499	97.823	-96.2592	-132.815	77.347	-47.5731	-134.697	88.572	-71.4967	-128.287	100.293	-93.0419	-152.305	79.1265	-40.0389	-153.06	85.3163	-57.3614	-145.33	101.453	-76.0927	-137.983	68.2701	1.12366	-142.733	59.7525	29.531	-116.387	50.3989	17.9176	
256	2.13333	-109.415	15.6662	15.5592	-100.228	9.73741	-14.7685	-106.59	20.2936	-40.1545	-124.45	33.4559	-59.4524	-102.751	53.9387	-48.1313	-102.906	62.8937	-76.8455	-108.68	74.8095	-97.4434	-122.773	70.4945	-53.9641	-121.948	76.989	-77	-119.815	88.3005	-100.829	-136.415	73.6635	-55.0433	-139.12	81.0576	-74.8157	-136.837	89.5019	-98.2118	-156.452	76.0432	-41.18	-151.662	78.662	-60.9968	-149.116	91.5083	-79.4448	-139.566	69.3996	-2.19498	-140.828	64.3087	28.1896	-116.313	53.1672	14.9092	
257	2.14167	-108.829	15.5622	14.775	-103.72	7.79053	-17.2342	-113.43	14.047	-39.9623	-134.851	26.3699	-54.5215	-106.762	50.3594	-57.2745	-114.235	55.4972	-81.2505	-118.909	62.6406	-101.197	-121.902	63.6474	-60.9192	-128.302	70.2425	-86.7855	-126.122	76.4631	-110.54	-142.038	68.347	-54.1811	-145.565	72.4265	-77.7858	-142.566	76.2185	-102.292	-160.367	71.0048	-44.1865	-158.574	72.8344	-67.1174	-156.991	85.2774	-86.2107	-139.893	68.8627	-6.98606	-140.05	68.1657	25.6387	-115.895	53.7826	5.51803	
258	2.15	-111.396	17.3883	13.4699	-111.083	2.87134	-11.877	-120.794	6.02642	-44.0452	-143.093	20.6983	-51.96	-114.298	42.6015	-58.3012	-120.441	45.0409	-82.1341	-127.182	48.8926	-104.784	-130.794	58.5797	-62.5487	-132.26	58.3892	-90.431	-139.366	64.8121	-117.032	-146.4	61.715	-60.0388	-148.68	62.6791	-83.2916	-153.109	67.3129	-109.886	-161.282	66.025	-47.4355	-164.843	67.9601	-70.1318	-164.032	72.1749	-87.8868	-141.676	69.9919	-6.79576	-136.069	68.7412	20.9369	-115.623	52.7672	4.90834	
259	2.15833	-111.886	14.9499	12.5183	-116.131	-2.65192	-11.7576	-131.62	0.834462	-39.0041	-154.414	11.9127	-48.1796	-122.469	31.6203	-58.5135	-125.933	26.2467	-82.1823	-136.855	27.2989	-105.344	-136.484	45.5642	-64.6691	-142.338	42.9532	-86.6451	-148.036	42.3221	-118.764	-155.166	51.8013	-61.0626	-159.847	48.6143	-80.2127	-162.7	45.492	-109.202	-166.954	57.3062	-42.9921	-173.958	55.7707	-66.8312	-170.324	56.6962	-90.516	-143.252	69.1498	-8.74344	-136.061	69.4217	18.4402	-111.642	49.4713	0.756822	
260	2.16667	-115.23	14.5194	15.6594	-119.988	-7.45468	-6.1626	-136.929	-8.8093	-30.0379	-159.263	2.16131	-37.785	-131.56	17.7139	-58.2291	-141.14	11.467	-76.119	-149.963	6.10198	-100.649	-143.566	30.5112	-62.4143	-151.34	24.5177	-83.8724	-158.349	20.5516	-113.74	-159.063	36.8293	-55.8815	-167.012	30.7396	-76.4594	-175.061	26.2475	-101.313	-174.179	46.9581	-47.531	-178.679	41.9197	-61.6099	-178.584	41.3214	-88.5212	-147.057	62.81	-11.4074	-137.918	69.6221	14.6732	-118.879	47.772	0.04184	
261	2.175	-116.167	14.7678	22.364	-122.482	-11.0685	1.027	-141.933	-13.6298	-23.7966	-163.645	-3.68941	-32.4082	-132.553	4.4768	-53.8764	-144.536	-5.54618	-74.8796	-161.24	-9.18864	-93.98	-148.603	19.6445	-60.7421	-159.963	12.0309	-81.4169	-167.665	5.20404	-103.876	-165.763	29.6506	-52.9121	-176.152	21.8372	-74.8544	-180.277	12.2184	-96.422	-176.99	40.0277	-40.8663	-184.93	31.5024	-58.5744	-186.416	26.6677	-83.3858	-148.819	54.9206	-15.5384	-140.306	68.7043	9.46121	-115.508	41.6893	-0.450325	
262	2.18333	-116.621	14.7897	25.8651	-123.782	-9.24146	7.17038	-137.728	-19.9038	-11.6992	-166.058	-10.974	-27.2015	-138.916	-1.16955	-48.0934	-147.839	-17.1182	-68.1447	-165.606	-23.6398	-87.5016	-152.241	10.2652	-53.0145	-161.613	-1.61128	-74.4676	-173.443	-10.3318	-98.8862	-169.402	20.158	-50.5232	-179.318	9.39851	-70.5961	-183.274	-1.14333	-89.604	-181.616	33.4451	-40.6764	-189.699	21.548	-58.198	-190.041	17.9862	-76.0364	-146.595	51.2325	-11.5939	-140.354	68.8867	12.5921	-121.629	41.206	1.91789	
263	2.19167	-114.089	14.5388	31.1371	-119.818	-13.2132	12.4888	-136.688	-25.1251	-7.43978	-161.205	-19.0111	-18.1363	-137.056	-10.5811	-40.8429	-148.893	-25.5379	-59.9515	-160.798	-36.8136	-76.2491	-154.793	0.649846	-46.9088	-166.089	-14.1025	-67.3432	-176.023	-27.8953	-91.0735	-168.508	9.21869	-44.0194	-181.204	-0.848755	-60.2084	-185.391	-16.0221	-81.1562	-183.021	23.0111	-32.7353	-189.734	8.0363	-50.7536	-194.042	2.46227	-72.249	-154.293	46.7799	-10.8909	-144.858	65.5952	12.9404	-121.61	35.342	1.30624	
264	2.2	-117.72	19.9836	32.4118	-116.886	-8.80535	21.7502	-133.473	-27.5669	-2.02185	-155.785	-27.9189	-11.3676	-140.195	-13.2739	-35.1776	-144.945	-31.202	-48.7059	-159.143	-44.6231	-66.4248	-160.021	-8.42251	-44.0543	-165.766	-26.6665	-57.0495	-174.908	-43.5499	-76.6591	-172.98	2.74259	-37.8398	-180.38	-15.4992	-53.8491	-187.191	-31.3271	-70.9729	-187.419	12.5259	-30.663	-192.215	-0.169612	-41.7571	-195.377	-12.0831	-59.5392	-155.73	40.6441	-8.54833	-150.292	61.341	10.5032	-125.091	39.4767	3.37858	
265	2.20833	-116.287	18.966	30.0766	-116.579	-6.12446	23.5815	-126.83	-27.5507	5.39477	-152.476	-30.4906	-5.77052	-139.095	-16.1572	-27.8457	-147.501	-39.7881	-45.0567	-158.925	-52.8695	-57.7457	-157.056	-14.19	-36.5766	-168.187	-32.1538	-48.5769	-176.513	-54.4494	-66.8882	-172.436	-7.85569	-35.4638	-184.488	-23.9438	-48.6366	-188.931	-42.5355	-62.118	-188.164	6.59339	-25.5259	-193.737	-13.2385	-39.3996	-198.038	-26.3858	-56.5299	-159.96	40.0783	-9.05763	-154.463	59.7462	6.83878	-126.126	37.0497	2.49095	
266	2.21667	-117.337	21.9488	31.5252	-115.927	-3.8502	23.874	-124.351	-25.7055	8.94904	-148.915	-33.1465	-1.92737	-138.311	-19.5306	-24.4242	-142.452	-41.484	-36.4878	-153.183	-60.3348	-49.1821	-158.989	-18.568	-33.1063	-165.275	-40.9865	-43.4668	-173.854	-66.4559	-59.4542	-171.686	-12.2171	-30.7446	-181.583	-31.6664	-41.7452	-188.885	-55.9011	-58.3968	-187.38	-2.19603	-23.325	-194.238	-20.0331	-35.5169	-195.303	-36.6996	-49.9475	-162.056	33.7514	-10.4304	-161.681	58.5804	9.13862	-130.2	37.735	4.27157	
267	2.225	-118.076	27.876	33.7535	-110.999	-0.585668	25.8707	-120.764	-21.0028	14.4134	-141.984	-36.3562	1.15842	-133.223	-20.6136	-20.4193	-138.683	-47.6346	-30.8546	-150.67	-68.5434	-41.7543	-154.314	-25.8799	-28.8126	-159.11	-45.9065	-34.8947	-163.497	-73.5252	-46.9895	-172.762	-15.533	-25.4862	-176.46	-40.9957	-36.4136	-181.485	-61.7272	-46.0839	-184.627	-6.62455	-17.3978	-189.418	-26.5248	-28.0474	-192.117	-44.4655	-42.3827	-168.827	32.7928	-8.1687	-166.809	58.3144	10.6915	-135.167	39.8525	5.61032	
268	2.23333	-118.278	35.6422	35.6826	-111.476	7.76466	28.7794	-114.718	-19.6861	13.7552	-132.565	-32.9594	6.81623	-126.063	-24.5988	-16.5074	-129.676	-44.7136	-22.3176	-139.34	-73.4211	-29.9555	-149.547	-27.2712	-22.5782	-152.704	-53.4993	-28.5885	-153.127	-75.651	-34.616	-168.289	-22.5653	-20.2993	-167.835	-45.757	-26.4961	-170.205	-67.9155	-33.7712	-185.425	-12.5764	-15.2021	-182.801	-32.6934	-21.8357	-183.225	-56.9483	-33.6043	-168.639	30.5224	-6.89173	-168.432	57.6423	10.1865	-138.174	39.7948	2.63845	
269	2.24167	-118.768	43.2186	37.9507	-106.482	12.8959	30.2886	-110.29	-11.1714	18.8562	-128.104	-33.0006	7.9139	-121.949	-18.3081	-10.7905	-123.794	-45.224	-16.5127	-125.808	-72.7543	-16.3652	-144.575	-25.2397	-16.2867	-143.116	-50.1172	-19.3321	-141.966	-77.9331	-24.8931	-157.049	-28.2262	-14.8761	-157.87	-51.9615	-19.8076	-159.781	-75.5744	-29.1024	-179.288	-16.2398	-9.31651	-176.607	-39.2205	-15.3224	-175.658	-60.0019	-24.4894	-168.503	27.5302	-3.14393	-169.697	54.9296	7.7539	-137.078	44.7908	7.41926	
270	2.25	-126.235	46.0297	38.6757	-106.788	18.3758	34.1263	-105.839	-7.2192	22.6418	-118.519	-26.9955	13.0247	-116.482	-14.8302	-8.70055	-117.622	-42.8155	-10.8932	-117.616	-69.7525	-4.65703	-132.807	-27.7848	-12.4353	-132.658	-49.5425	-13.4223	-127.899	-81.1131	-16.4138	-150.067	-28.8662	-7.32709	-152.05	-47.5012	-9.22534	-144.238	-70.0101	-21.385	-172.137	-19.353	-5.55929	-165.721	-39.0824	-7.70748	-163.223	-65.382	-19.7972	-166.477	25.8795	-3.82823	-173.621	52.3011	9.04539	-139.616	46.7221	5.74294	
271	2.25833	-124.725	49.151	43.8104	-106.382	21.3908	41.4118	-102.188	-2.76045	29.7029	-117.144	-20.6933	16.6879	-106.971	-9.93814	-4.89051	-104.065	-38.2319	-5.58005	-109.426	-66.5455	8.73928	-125.386	-24.4614	-8.96523	-118.613	-44.9749	-8.75533	-115.131	-73.9182	-8.62182	-142.298	-25.4525	2.26138	-138.079	-42.1448	2.85361	-136.182	-55.91	-10.6235	-160.231	-20.5591	-1.97473	-155.729	-43.8274	-3.97422	-148.723	-64.7959	-11.6718	-160.966	24.8738	-5.0121	-169.81	54.4347	7.73488	-136.32	47.361	10.554	
272	2.26667	-126.683	52.6802	49.9022	-111.959	26.0808	48.6329	-100.709	-1.76793	33.2251	-110.045	-17.4354	21.8178	-105.352	-1.34753	-0.616954	-96.4405	-28.9065	-3.08511	-100.465	-55.5052	10.3557	-116.59	-16.8826	-9.88064	-110.081	-47.1691	-8.05114	-102.75	-68.7657	-0.0158496	-132.092	-26.254	6.80789	-132.611	-24.9902	12.2216	-122.835	-46.0191	-1.34992	-154.364	-20.2333	0.451286	-146.945	-41.649	4.27192	-142.422	-55.122	-3.51469	-158.573	29.1021	-3.13718	-168.475	56.117	8.25882	-135.184	52.3679	14.1035	
